<?xml version="1.0" standalone="no"?>
<!DOCTYPE svg PUBLIC "-//W3C//DTD SVG 20010904//EN"
 "http://www.w3.org/TR/2001/REC-SVG-20010904/DTD/svg10.dtd">
<svg version="1.0" xmlns="http://www.w3.org/2000/svg"
 width="950.000000pt" height="633.000000pt" viewBox="0 0 950.000000 633.000000"
 preserveAspectRatio="xMidYMid meet">

<g transform="translate(0.000000,633.000000) scale(0.100000,-0.100000)"
fill="#000000" stroke="none">
<path d="M228 6294 c-4 -35 5 -54 17 -34 4 6 11 5 21 -4 19 -19 18 -23 -6 -29
-22 -6 -28 -43 -8 -49 8 -3 1 -19 -20 -46 -28 -35 -31 -44 -21 -60 7 -11 19
-18 27 -15 12 5 12 3 1 -16 -26 -41 -98 -19 -172 53 l-56 55 -4 83 -3 83 -2
-94 c-2 -87 0 -95 23 -123 33 -39 91 -78 131 -90 31 -8 32 -10 30 -60 -1 -67
21 -76 57 -24 21 33 25 34 43 22 18 -14 18 -15 2 -21 -11 -4 -18 -18 -18 -32
0 -15 4 -22 11 -17 6 3 15 1 19 -6 13 -20 40 -3 40 25 0 21 4 25 23 23 12 -2
28 -7 36 -12 9 -6 20 -1 33 15 38 47 58 84 58 107 0 18 4 22 19 17 11 -3 22
-1 25 4 4 6 13 8 20 5 19 -7 39 22 33 47 -4 16 0 23 15 27 15 4 19 11 15 31
-9 44 3 81 24 78 31 -5 33 -16 12 -55 -12 -20 -24 -55 -28 -77 -12 -77 -15
-84 -52 -106 -21 -13 -58 -40 -82 -61 -23 -20 -93 -63 -155 -94 -61 -31 -122
-65 -136 -74 -14 -9 -56 -30 -95 -45 -68 -26 -105 -53 -105 -75 0 -16 17 -12
47 14 16 14 43 28 59 32 16 4 47 18 69 31 22 13 83 45 135 71 92 46 212 122
225 142 3 5 11 10 16 10 6 0 -1 -14 -15 -31 -14 -17 -24 -35 -20 -40 3 -5 -2
-12 -10 -15 -20 -8 -21 -53 -1 -60 8 -4 15 -12 15 -20 0 -21 18 -17 42 11 21
24 46 35 33 15 -3 -6 1 -13 9 -16 12 -5 13 -9 3 -24 -6 -11 -8 -22 -5 -26 8
-7 68 17 68 28 0 3 9 4 19 1 14 -3 21 2 26 19 15 53 30 78 43 73 8 -3 21 -5
29 -5 12 0 13 -3 4 -14 -14 -17 -2 -97 14 -97 6 1 10 7 10 14 0 12 14 27 28
27 4 0 7 -7 7 -16 0 -9 7 -14 18 -12 11 2 18 14 19 36 2 39 22 70 34 51 13
-21 41 -1 39 28 -4 56 0 71 20 76 20 5 24 -2 20 -37 -1 -10 4 -22 12 -27 11
-7 11 -12 0 -30 -12 -18 -11 -24 2 -37 12 -12 18 -13 30 -3 18 15 37 6 29 -14
-3 -9 -18 -15 -38 -15 -35 0 -43 -10 -40 -50 3 -36 15 -60 30 -60 8 0 11 -8 8
-20 -3 -11 -2 -31 1 -46 5 -20 10 -23 20 -14 11 8 15 8 18 -1 6 -18 48 7 48
29 1 9 10 33 20 52 l20 35 -2 -57 c-1 -45 -6 -62 -25 -82 -27 -29 -43 -33 -43
-11 0 12 -4 13 -25 3 -20 -9 -28 -8 -42 5 -13 11 -23 13 -35 6 -10 -5 -26 -6
-40 0 -37 14 -86 6 -107 -18 -21 -25 -31 -27 -31 -7 0 8 9 22 21 30 24 16 18
36 -11 36 -10 0 -20 6 -23 14 -5 11 -14 12 -47 5 -87 -20 -190 -95 -192 -140
-1 -13 -6 -29 -11 -36 -18 -24 3 -31 39 -14 20 10 45 34 57 56 24 41 47 57 47
31 0 -9 -7 -16 -15 -16 -20 0 -19 -30 2 -45 14 -11 23 -10 45 1 36 18 35 19
40 -16 3 -22 0 -31 -14 -36 -17 -5 -23 -17 -19 -38 1 -4 -6 -14 -15 -20 -8 -7
-15 -19 -13 -27 3 -21 -19 -70 -39 -85 -20 -16 -56 -18 -81 -5 -10 6 -33 6
-55 1 -29 -6 -39 -5 -43 6 -5 13 -7 13 -17 0 -12 -16 -59 -26 -63 -13 -10 27
-2 36 27 31 39 -8 39 10 0 56 -17 19 -30 41 -30 50 0 17 -69 66 -88 62 -8 -2
-20 2 -28 9 -11 9 -18 9 -26 1 -7 -7 -20 -12 -30 -12 -10 0 -21 -7 -24 -15 -4
-8 -15 -15 -26 -15 -16 0 -19 -5 -15 -20 4 -16 2 -20 -12 -15 -22 7 -79 -52
-82 -85 -4 -43 0 -60 14 -60 10 0 13 -13 13 -41 -1 -52 17 -61 39 -19 l16 31
19 -23 19 -23 35 34 c20 19 36 39 36 44 0 5 9 20 19 33 15 19 20 21 25 9 3 -8
3 -21 0 -29 -3 -7 2 -20 10 -29 14 -14 12 -17 -18 -35 -18 -11 -44 -23 -57
-27 -39 -12 -91 -56 -85 -71 3 -8 0 -14 -6 -14 -18 0 -58 -49 -52 -64 3 -7 -2
-16 -11 -20 -11 -4 -15 -12 -11 -22 4 -9 -1 -28 -10 -42 -12 -19 -14 -30 -6
-47 6 -13 8 -32 5 -44 -4 -15 -1 -21 12 -21 15 0 17 -6 11 -42 -4 -24 -9 -68
-11 -98 -3 -30 -7 -68 -10 -83 -3 -19 0 -30 10 -33 11 -5 12 -11 4 -26 -8 -15
-7 -25 6 -44 19 -29 51 -31 83 -5 27 24 28 54 3 152 -26 105 -32 139 -22 139
5 0 14 -21 20 -47 7 -27 13 -52 14 -58 1 -5 7 -17 12 -25 14 -23 17 -40 16
-94 0 -26 3 -56 8 -65 8 -14 11 -12 20 12 6 16 11 39 11 52 0 13 5 27 10 30
11 7 40 -18 40 -34 0 -16 22 -25 30 -11 4 6 4 28 -1 49 -10 41 -1 130 11 110
5 -7 6 -19 3 -28 -4 -13 -3 -13 5 -2 5 7 15 10 21 7 8 -5 5 -15 -9 -33 -11
-14 -19 -28 -17 -29 7 -7 57 21 57 32 0 6 7 17 16 25 26 22 9 116 -36 201 -6
11 -6 19 0 23 6 4 13 -2 16 -12 24 -75 39 -97 56 -87 4 3 8 21 8 40 0 23 5 34
14 34 12 0 13 -11 9 -55 -5 -51 -4 -55 15 -55 18 0 20 -4 15 -35 -4 -25 -1
-41 10 -53 23 -26 11 -66 -24 -79 -19 -7 -29 -18 -29 -32 0 -11 -5 -23 -10
-26 -15 -9 -12 -35 3 -35 9 0 12 -11 9 -35 -5 -42 9 -45 33 -8 18 27 18 27 26
5 13 -34 25 -26 39 26 15 54 24 67 40 57 8 -5 7 -11 -3 -23 -8 -10 -18 -31
-22 -49 -3 -17 -13 -37 -21 -44 -8 -6 -14 -20 -14 -30 0 -10 -4 -20 -10 -24
-5 -3 -7 -12 -4 -19 13 -35 -56 -72 -83 -45 -8 8 -13 8 -17 0 -4 -6 -18 -11
-32 -11 -17 0 -24 -5 -24 -20 0 -11 -7 -20 -15 -20 -8 0 -15 5 -15 11 0 18
-23 4 -31 -19 -7 -17 -4 -27 12 -40 40 -33 79 -74 79 -83 0 -14 -59 -116 -74
-128 -10 -8 -17 -7 -27 5 -11 13 -10 17 2 25 11 7 8 13 -16 34 -34 28 -72 32
-101 10 -24 -18 -54 -19 -54 -2 0 16 -80 40 -103 31 -9 -3 -17 -12 -17 -20 0
-8 -4 -14 -9 -14 -12 0 -11 -160 1 -183 5 -10 13 -15 19 -12 5 4 12 -1 15 -9
4 -11 14 -14 29 -10 18 4 25 -1 38 -28 15 -33 21 -108 8 -108 -4 0 -16 7 -27
15 -10 8 -29 15 -41 15 -27 0 -30 15 -5 30 16 11 16 11 -1 6 -10 -3 -25 -6
-33 -6 -12 0 -14 -264 -14 -1885 l0 -1885 4725 0 4724 0 -3 122 c-1 68 1 157
5 198 9 78 23 464 22 560 -1 30 -3 96 -5 145 -2 50 0 93 5 96 16 12 19 327 23
2747 l5 2462 -3830 0 c-3392 0 -3830 -2 -3825 -15 4 -9 0 -15 -10 -15 -10 0
-13 6 -10 15 5 12 -3 15 -40 15 -39 0 -46 -3 -46 -19 0 -25 17 -36 35 -21 9 7
15 8 20 0 6 -10 -20 -23 -72 -36 -29 -8 -43 7 -43 49 0 23 -4 27 -27 27 -27 0
-28 -1 -25 -48 l4 -49 -67 -6 c-37 -4 -71 -4 -76 -1 -14 8 3 36 18 30 14 -6
93 50 93 66 0 14 -1196 10 -1227 -5 -21 -9 -27 -9 -31 1 -2 7 -23 12 -57 12
l-53 0 -4 -36z m432 -16 c-1 -28 -2 -30 -11 -15 -6 10 -8 25 -5 33 9 24 16 16
16 -18z m1376 -13 c-7 -56 -28 -95 -49 -95 -10 0 -22 -11 -27 -25 -10 -25 -40
-26 -40 0 0 6 -11 32 -24 57 -13 25 -21 49 -17 55 13 19 72 35 109 30 20 -3
31 -3 25 0 -21 8 -15 22 8 20 19 -1 20 -6 15 -42z m-1188 -70 c1 -38 -2 -45
-18 -45 -23 0 -27 37 -10 71 17 31 27 22 28 -26z m1017 0 c12 -22 31 -65 44
-95 13 -30 27 -57 32 -60 5 -4 12 -21 15 -39 6 -26 4 -33 -7 -29 -8 2 -15 14
-17 26 -2 13 -13 24 -26 28 -12 3 -30 16 -40 30 -11 13 -25 24 -32 24 -7 0
-17 7 -22 16 -5 9 -20 18 -33 19 -13 1 -27 3 -30 4 -7 1 -34 80 -28 85 10 9
96 34 109 33 8 -1 24 -20 35 -42z m-255 -32 c-14 -21 -59 -57 -66 -51 -2 3 -7
18 -10 36 -6 30 -6 31 37 34 54 4 53 4 39 -19z m-542 11 c18 -5 22 -13 20 -33
-2 -18 -8 -25 -21 -23 -9 2 -20 -5 -24 -15 -6 -14 -8 -13 -14 10 -7 27 -2 67
10 67 3 0 16 -3 29 -6z m570 -73 c-7 -12 -22 -20 -34 -19 -24 2 -22 10 9 46
18 19 22 20 29 8 5 -9 4 -23 -4 -35z m-351 -41 c3 -13 15 -33 25 -44 21 -23
25 -61 6 -50 -7 4 -21 14 -30 22 -9 7 -22 11 -28 7 -7 -4 -9 1 -5 18 4 14 2
28 -4 31 -6 4 -11 17 -11 30 0 12 -5 27 -11 33 -6 6 -8 17 -4 23 9 15 52 -33
62 -70z m-597 43 c-1 -24 -2 -26 -11 -10 -5 9 -7 22 -4 27 10 17 15 11 15 -17z
m683 7 c3 -11 1 -23 -4 -26 -12 -7 -12 -41 1 -46 12 -4 -1 -58 -15 -57 -5 0
-9 12 -8 27 2 15 -2 41 -8 59 -8 25 -7 36 3 47 18 21 25 20 31 -4z m647 -15
c-7 -9 -15 -13 -17 -11 -7 7 7 26 19 26 6 0 6 -6 -2 -15z m-992 -55 c7 0 9 -8
3 -22 -10 -28 -31 -35 -31 -11 0 10 -3 29 -6 43 -5 23 -4 24 9 8 8 -10 19 -18
25 -18z m547 20 c3 -5 1 -10 -4 -10 -6 0 -11 5 -11 10 0 6 2 10 4 10 3 0 8 -4
11 -10z m-338 -15 c9 -25 -4 -29 -17 -6 -7 15 -7 21 0 21 6 0 13 -7 17 -15z
m778 -20 c-16 -51 -17 -51 -25 -30 -4 11 -3 26 2 33 14 17 28 15 23 -3z m53
-62 c17 -23 30 -32 43 -28 15 5 16 2 10 -22 -10 -39 -52 -43 -86 -9 -28 28
-32 61 -13 102 11 24 13 25 17 9 2 -11 15 -34 29 -52z m-1768 23 c0 -2 -7 -7
-16 -10 -8 -3 -12 -2 -9 4 6 10 25 14 25 6z m300 -16 c0 -5 -7 -10 -16 -10 -8
0 -12 5 -9 10 3 6 10 10 16 10 5 0 9 -4 9 -10z m576 -28 c-4 -3 -12 0 -19 7
-9 9 -9 14 3 21 11 7 16 5 18 -6 2 -9 1 -18 -2 -22z m704 8 c0 -11 -4 -20 -9
-20 -11 0 -22 26 -14 34 12 12 23 5 23 -14z m-740 -40 c0 -5 -5 -10 -11 -10
-5 0 -7 5 -4 10 3 6 8 10 11 10 2 0 4 -4 4 -10z m464 -15 c-3 -7 -12 -16 -20
-19 -8 -3 -14 -15 -14 -26 0 -11 -11 -37 -24 -58 -14 -20 -28 -49 -31 -64 -16
-66 -55 -57 -55 13 0 20 -7 42 -15 49 -22 18 -19 50 4 50 11 0 27 3 37 7 13 5
16 3 11 -10 -9 -23 18 -22 41 1 9 11 25 33 34 51 17 31 43 36 32 6z m414 -13
c6 -18 -15 -14 -22 4 -4 10 -1 14 6 12 6 -2 14 -10 16 -16z m-848 -12 c0 -5
-8 -10 -17 -10 -15 0 -16 2 -3 10 19 12 20 12 20 0z m700 0 c0 -5 -2 -10 -4
-10 -3 0 -8 5 -11 10 -3 6 -1 10 4 10 6 0 11 -4 11 -10z m250 -10 c0 -10 -40
-50 -49 -50 -4 0 -12 9 -19 20 -11 18 -10 22 10 30 31 12 58 12 58 0z m97 -42
c-3 -8 -6 -5 -6 6 -1 11 2 17 5 13 3 -3 4 -12 1 -19z m-267 -7 c0 -5 -7 -14
-15 -21 -8 -7 -15 -18 -15 -25 0 -6 -10 -20 -22 -31 -18 -16 -17 -12 8 33 27
49 44 66 44 44z m19 -22 c-19 -12 -24 -2 -8 17 9 11 14 13 17 4 3 -7 -2 -16
-9 -21z m-199 -19 c0 -5 -5 -10 -11 -10 -5 0 -7 5 -4 10 3 6 8 10 11 10 2 0 4
-4 4 -10z m166 -32 c-3 -7 -9 -21 -12 -30 -4 -10 -11 -18 -16 -18 -5 0 -7 6
-4 13 3 6 9 20 12 30 4 9 11 17 16 17 5 0 7 -6 4 -12z m-156 -25 c-1 -18 -18
-35 -24 -24 -10 16 -26 13 -26 -5 0 -8 -4 -12 -10 -9 -5 3 -10 15 -10 26 0 15
7 19 35 19 19 0 35 -3 35 -7z m-330 -23 c0 -5 -2 -10 -4 -10 -3 0 -8 5 -11 10
-3 6 -1 10 4 10 6 0 11 -4 11 -10z m410 -10 c0 -5 -4 -10 -10 -10 -5 0 -10 5
-10 10 0 6 5 10 10 10 6 0 10 -4 10 -10z m-100 -51 c0 -21 -34 -68 -52 -72
-26 -7 -23 16 8 52 26 32 44 40 44 20z m101 -108 c-1 -131 -6 -151 -40 -151
-14 0 -40 -4 -58 -9 -17 -5 -34 -7 -37 -4 -3 3 6 23 20 44 13 21 24 45 24 53
0 8 4 17 9 21 6 3 10 13 10 23 1 42 9 62 37 95 16 20 30 34 32 32 2 -1 3 -48
3 -104z m-1126 49 c-3 -5 -11 -10 -16 -10 -6 0 -7 5 -4 10 3 6 11 10 16 10 6
0 7 -4 4 -10z m670 0 c7 -11 -23 -81 -39 -92 -17 -12 -36 -9 -36 4 0 17 49 98
60 98 5 0 12 -4 15 -10z m819 -28 c-22 -5 -31 7 -14 18 9 6 17 5 22 -3 4 -7 1
-13 -8 -15z m-981 -12 c-4 -16 -8 -18 -19 -9 -11 9 -11 15 -3 25 15 19 28 9
22 -16z m-443 -10 c0 -5 -4 -10 -10 -10 -5 0 -10 5 -10 10 0 6 5 10 10 10 6 0
10 -4 10 -10z m820 -62 c0 -18 -9 -66 -20 -107 -11 -41 -20 -84 -20 -95 0 -11
-10 -30 -22 -43 -15 -16 -22 -35 -21 -61 1 -45 -14 -79 -29 -64 -6 6 -16 8
-24 5 -10 -4 -12 12 -8 72 2 42 6 81 10 86 7 12 -24 49 -40 49 -19 0 -59 68
-51 87 6 17 7 17 21 -2 12 -16 16 -17 23 -6 5 7 14 10 20 6 20 -12 41 16 41
52 0 33 2 35 28 30 15 -3 38 1 52 8 36 20 40 19 40 -17z m310 22 c0 -5 -2 -10
-4 -10 -3 0 -8 5 -11 10 -3 6 -1 10 4 10 6 0 11 -4 11 -10z m-540 -37 c0 -10
-4 -24 -9 -32 -8 -12 -12 -12 -25 2 -9 8 -16 18 -16 22 0 4 30 20 48 24 1 1 2
-7 2 -16z m550 -45 c0 -42 -1 -42 -13 -18 -10 18 -10 30 -3 43 15 24 16 22 16
-25z m-840 -19 c0 -4 -9 -9 -20 -12 -11 -3 -18 -2 -17 1 2 4 7 16 11 27 6 16
9 17 16 5 6 -8 10 -18 10 -21z m207 -51 c-3 -7 -5 -2 -5 12 0 14 2 19 5 13 2
-7 2 -19 0 -25z m346 -12 c-22 -30 -33 -33 -33 -7 0 19 43 55 48 40 2 -4 -5
-20 -15 -33z m377 -11 c-7 -9 -15 -13 -17 -11 -7 7 7 26 19 26 6 0 6 -6 -2
-15z m-1075 -25 c3 -5 1 -10 -4 -10 -6 0 -11 5 -11 10 0 6 2 10 4 10 3 0 8 -4
11 -10z m921 -25 c-3 -9 -11 -13 -16 -10 -8 5 -7 11 1 21 14 18 24 11 15 -11z
m-597 -89 c-9 -8 -10 -3 -5 23 3 18 7 45 8 60 1 14 3 4 5 -23 3 -30 0 -53 -8
-60z m668 82 c-3 -8 -6 -5 -6 6 -1 11 2 17 5 13 3 -3 4 -12 1 -19z m-207 -2
c0 -8 -9 -17 -20 -21 -11 -3 -19 -9 -18 -13 3 -15 -16 -48 -45 -79 -23 -25
-28 -37 -23 -58 4 -14 4 -30 1 -35 -9 -15 -45 2 -45 21 0 11 -7 19 -15 19 -8
0 -15 2 -15 5 0 23 92 120 149 157 33 21 31 21 31 4z m-371 -62 c0 -26 -1 -46
-3 -43 -8 8 -14 99 -7 94 4 -2 9 -25 10 -51z m-836 16 c3 -11 1 -20 -4 -20 -5
0 -9 9 -9 20 0 11 2 20 4 20 2 0 6 -9 9 -20z m245 9 c-2 -6 -8 -10 -13 -10 -5
0 -11 4 -13 10 -2 6 4 11 13 11 9 0 15 -5 13 -11z m42 -32 l0 -32 -15 29 c-15
28 -12 51 6 41 5 -4 9 -21 9 -38z m1140 16 c0 -22 -2 -25 -10 -13 -13 20 -13
40 0 40 6 0 10 -12 10 -27z m3935 7 c8 -12 -20 -17 -134 -25 -331 -21 -678
-157 -996 -389 -49 -36 -93 -66 -97 -66 -14 0 -8 17 11 31 10 8 51 39 92 70
249 189 573 325 884 373 108 16 231 20 240 6z m-5518 -42 c-3 -7 -5 -2 -5 12
0 14 2 19 5 13 2 -7 2 -19 0 -25z m340 17 c0 -8 -4 -15 -9 -15 -4 0 -8 7 -8
15 0 8 4 15 8 15 5 0 9 -7 9 -15z m5194 -37 c28 -21 32 -22 57 -8 35 19 79 15
61 -6 -9 -11 -8 -14 3 -14 8 0 19 5 25 11 14 14 75 8 80 -8 7 -21 -58 -54 -91
-47 -17 4 -31 2 -36 -6 -14 -23 -195 -119 -205 -109 -6 6 -5 16 3 29 11 19 9
20 -30 20 -36 0 -39 -2 -25 -13 13 -9 16 -20 11 -44 -5 -25 -14 -35 -45 -47
-50 -20 -85 -20 -93 0 -10 26 -7 69 7 83 10 10 6 11 -18 5 -43 -10 -46 -13
-35 -34 5 -10 10 -35 10 -54 0 -35 -1 -35 -67 -55 -37 -11 -69 -19 -71 -16 -2
2 -4 29 -5 59 -2 42 -5 55 -15 51 -8 -3 -23 -5 -34 -5 -17 0 -18 -2 -5 -14 10
-10 17 -51 22 -125 6 -99 9 -111 25 -111 17 0 18 6 13 65 l-6 65 29 0 c16 0
46 5 68 11 47 13 56 4 56 -60 0 -35 3 -42 16 -37 9 3 23 6 32 6 14 0 15 2 2
10 -9 6 -14 26 -15 60 l0 51 55 19 c30 11 59 19 64 20 4 0 6 -34 4 -75 l-3
-75 30 0 c20 0 26 3 17 9 -11 6 -12 26 -7 85 6 64 11 79 29 90 11 7 46 27 76
45 66 40 189 82 218 75 14 -4 22 0 27 15 9 30 53 61 86 61 45 0 215 -58 314
-107 157 -78 280 -168 410 -298 148 -148 235 -268 325 -450 150 -303 230 -638
233 -980 2 -104 -2 -147 -10 -156 -8 -8 -13 -41 -13 -87 0 -224 -95 -607 -216
-877 -464 -1028 -1431 -1577 -2314 -1315 -399 119 -752 421 -959 820 -162 313
-236 598 -248 960 -5 169 -5 176 15 194 12 10 36 22 54 27 l33 9 -37 -5 c-54
-6 -60 12 -48 127 41 396 196 827 415 1152 109 163 98 152 134 126 l31 -21 0
40 c0 23 4 41 8 41 15 0 36 -50 35 -85 -1 -32 1 -34 19 -24 16 9 27 5 61 -22
67 -52 74 -56 61 -39 -7 8 -15 34 -19 58 -6 35 -4 42 9 42 22 0 31 27 16 45
-10 12 -10 18 0 30 10 12 10 18 0 30 -10 12 -10 18 -1 29 18 21 22 70 10 129
-10 51 -9 52 25 84 24 22 41 30 55 26 12 -3 21 -1 22 3 4 52 23 73 134 153
321 232 704 374 1028 380 56 1 73 -3 98 -21z m455 1 c120 -36 339 -151 455
-238 368 -277 632 -757 708 -1286 15 -102 32 -353 28 -400 -3 -22 -5 -48 -6
-57 0 -10 -5 -18 -11 -18 -6 0 -10 39 -10 98 0 726 -308 1367 -815 1698 -111
72 -251 139 -367 175 -95 29 -124 49 -74 49 13 0 55 -9 92 -21z m-5644 -44
c-7 -41 -20 -38 -18 4 1 27 4 36 12 30 6 -5 9 -20 6 -34z m64 -4 c-11 -18 -36
-13 -36 7 0 10 3 22 7 26 10 10 37 -20 29 -33z m1322 18 c-2 -6 -8 -10 -13
-10 -5 0 -11 4 -13 10 -2 6 4 11 13 11 9 0 15 -5 13 -11z m-1460 -45 c-14 -41
-48 -61 -48 -28 0 17 50 78 57 70 2 -2 -2 -21 -9 -42z m1407 6 c3 -11 3 -25 0
-30 -10 -16 -35 8 -35 31 0 25 27 24 35 -1z m-300 -48 c-8 -8 -25 10 -19 20 4
6 9 5 15 -3 4 -7 6 -15 4 -17z m320 9 c-4 -13 3 -28 21 -46 23 -23 30 -25 50
-16 19 8 24 8 24 -4 0 -8 -3 -14 -7 -14 -26 4 -43 -3 -43 -19 0 -11 -9 -27
-21 -38 -17 -16 -22 -16 -29 -4 -8 12 -10 12 -10 -3 0 -11 -6 -17 -12 -14 -18
5 -16 42 2 42 22 0 49 27 32 33 -7 2 -9 8 -6 13 3 6 0 16 -6 24 -11 14 -7 65
6 65 3 0 3 -9 -1 -19z m-1665 -1 c0 -5 -5 -10 -11 -10 -5 0 -7 5 -4 10 3 6 8
10 11 10 2 0 4 -4 4 -10z m1310 -40 c0 -5 -5 -10 -11 -10 -5 0 -7 5 -4 10 3 6
8 10 11 10 2 0 4 -4 4 -10z m197 -22 c1 -12 -7 -28 -18 -35 -15 -11 -17 -18
-9 -34 9 -16 7 -19 -10 -19 -11 0 -23 0 -27 0 -17 0 -6 29 26 69 18 22 34 41
35 41 1 0 2 -10 3 -22z m-57 -10 c0 -7 -9 -24 -20 -38 -16 -21 -21 -23 -32
-12 -11 11 -10 15 5 23 9 6 17 17 17 24 0 8 7 15 15 15 8 0 15 -6 15 -12z
m-1434 -22 c20 -21 17 -28 -6 -14 -11 7 -20 16 -20 20 0 12 10 9 26 -6z m424
-61 c-12 -25 -26 -45 -31 -45 -13 0 -11 12 6 34 8 11 15 30 15 42 0 12 6 24
13 27 21 7 20 -11 -3 -58z m769 29 c9 -20 8 -30 -4 -47 l-15 -21 0 21 c0 12
-4 25 -10 28 -5 3 -10 17 -10 30 0 31 23 24 39 -11z m-1447 -6 c-7 -7 -12 -8
-12 -2 0 14 12 26 19 19 2 -3 -1 -11 -7 -17z m1083 -35 c4 -21 3 -33 -4 -33
-6 0 -11 13 -11 29 0 16 -3 38 -6 48 -4 14 -4 15 4 3 5 -8 13 -30 17 -47z
m-975 1 c0 -14 -4 -23 -9 -20 -5 3 -7 15 -4 26 7 28 13 25 13 -6z m-80 -37 c0
-4 -7 -2 -15 7 -8 8 -15 21 -15 28 1 14 30 -20 30 -35z m384 8 c-1 -20 -4 -38
-8 -42 -3 -3 -6 -17 -6 -30 0 -12 -4 -23 -10 -23 -14 0 -12 23 4 45 10 14 11
23 3 36 -8 13 -7 22 2 33 8 9 14 16 15 16 0 0 1 -16 0 -35z m787 -19 c14 -16
10 -36 -8 -43 -10 -3 -26 -13 -35 -21 -10 -8 -24 -12 -33 -9 -21 9 -21 93 0
101 8 3 15 1 15 -4 0 -18 40 -11 41 8 1 14 2 13 6 -3 3 -11 9 -24 14 -29z
m279 30 c0 -3 -4 -8 -10 -11 -5 -3 -10 -1 -10 4 0 6 5 11 10 11 6 0 10 -2 10
-4z m400 -26 c-6 -11 -13 -20 -16 -20 -2 0 0 9 6 20 6 11 13 20 16 20 2 0 0
-9 -6 -20z m-1913 -32 c-3 -7 -5 -2 -5 12 0 14 2 19 5 13 2 -7 2 -19 0 -25z
m233 0 c0 -6 -7 -5 -15 2 -8 7 -15 17 -15 22 0 6 7 5 15 -2 8 -7 15 -17 15
-22z m1234 17 c3 -9 0 -15 -9 -15 -9 0 -12 6 -9 15 4 8 7 15 9 15 2 0 5 -7 9
-15z m-422 -72 c4 -45 3 -53 -12 -53 -24 0 -44 -26 -36 -46 5 -12 14 -14 34
-10 25 6 26 5 8 -8 -10 -8 -19 -30 -21 -48 -1 -18 -7 -44 -13 -58 -6 -14 -13
-34 -17 -45 -5 -16 -10 -8 -25 35 -26 73 -25 73 15 66 19 -4 35 -3 35 1 0 5
-12 10 -26 11 -49 4 -49 4 -23 124 7 32 16 48 30 51 10 3 19 14 19 24 0 25 12
37 21 21 3 -7 9 -37 11 -65z m303 49 c-3 -3 -11 0 -18 7 -9 10 -8 11 6 5 10
-3 15 -9 12 -12z m615 -23 c-9 -15 -13 -17 -24 -7 -17 16 -13 23 13 25 18 2
19 -1 11 -18z m-1075 -73 c-15 -66 -13 -61 -42 -70 -42 -13 -35 8 39 116 18
25 18 19 3 -46z m-128 28 c10 -9 9 -15 -2 -24 -19 -16 -19 -30 0 -30 17 0 19
-18 5 -40 -7 -12 -11 -12 -28 3 -18 17 -21 17 -36 1 -10 -10 -21 -13 -26 -8
-8 9 -14 61 -11 96 2 28 71 29 98 2z m543 10 c0 -12 -34 -33 -52 -34 -25 0
-22 19 5 30 27 11 47 12 47 4z m305 -130 c-18 -35 -21 -9 -3 33 8 19 12 23 15
12 2 -8 -3 -28 -12 -45z m335 37 c0 -19 -17 -38 -25 -29 -7 7 7 48 16 48 5 0
9 -9 9 -19z m2471 -23 c-25 -22 -36 -27 -39 -18 -6 16 33 50 57 50 11 0 6 -10
-18 -32z m-3026 -2 c19 8 24 -7 26 -77 2 -91 2 -91 -20 -80 -10 6 -21 7 -25 4
-6 -6 -10 11 -7 33 1 6 -6 17 -14 24 -17 14 -20 46 -5 55 6 3 10 18 10 33 0
19 3 23 11 15 6 -6 17 -9 24 -7z m-75 -61 c5 -6 5 -17 0 -25 -8 -13 -12 -12
-29 5 -19 19 -19 22 -3 55 l16 35 4 -30 c2 -16 8 -35 12 -40z m-518 25 c3 -19
1 -29 -6 -27 -14 4 -21 57 -8 57 5 0 12 -14 14 -30z m82 5 c3 -8 1 -15 -4 -15
-6 0 -10 7 -10 15 0 8 2 15 4 15 2 0 6 -7 10 -15z m769 -20 c-7 -21 -13 -19
-13 6 0 11 4 18 10 14 5 -3 7 -12 3 -20z m-743 -25 c0 -11 -4 -20 -10 -20 -5
0 -10 9 -10 20 0 11 5 20 10 20 6 0 10 -9 10 -20z m954 -12 c-13 -46 -23 -55
-24 -22 0 31 6 44 22 44 5 0 6 -10 2 -22z m-210 -15 c7 3 18 -8 25 -24 8 -18
19 -28 29 -27 11 2 16 -2 13 -12 -13 -48 -12 -80 2 -86 25 -9 57 14 57 41 0
18 4 23 15 19 8 -4 15 -1 15 5 0 7 10 15 23 20 18 7 24 4 34 -18 l11 -26 18
42 c13 34 20 41 30 32 8 -6 21 -9 29 -5 19 7 19 1 0 -28 -15 -22 -17 -76 -3
-76 4 0 11 7 16 15 7 13 10 12 20 -10 12 -25 12 -25 38 -8 l27 17 -7 -169 c-4
-94 -9 -183 -11 -200 -3 -16 -7 -86 -10 -155 -3 -69 -8 -160 -11 -202 -7 -78
-7 -78 -35 -78 -16 0 -29 5 -29 11 0 5 -10 3 -22 -5 -29 -21 -55 -20 -67 1 -9
16 -11 16 -28 2 -10 -10 -33 -16 -55 -15 -21 1 -38 -2 -38 -6 0 -12 -98 -9
-102 3 -2 7 -12 7 -28 1 -14 -4 -32 -7 -40 -5 -20 5 -50 58 -50 89 0 13 -6 24
-13 24 -8 0 -20 11 -27 25 -21 40 -109 72 -125 45 -3 -6 -17 -7 -31 -4 -20 5
-24 3 -24 -16 0 -19 -4 -21 -24 -16 -19 5 -29 0 -40 -16 -8 -12 -13 -25 -10
-30 9 -14 41 -9 48 7 3 10 16 14 37 11 42 -4 47 -33 11 -63 -25 -20 -26 -23
-15 -54 8 -20 9 -37 4 -42 -15 -15 -72 3 -82 26 -12 27 -59 51 -72 38 -12 -12
-57 8 -57 26 0 7 7 13 15 13 11 0 15 8 13 26 -2 15 3 29 10 31 7 3 12 -3 12
-14 1 -25 35 -67 48 -59 14 8 13 76 -1 94 -14 17 -13 90 1 104 7 7 12 17 12
23 0 17 -87 105 -105 105 -8 0 -15 5 -15 11 0 6 8 8 19 4 14 -4 24 2 37 25 21
34 35 40 27 10 -3 -11 -2 -31 1 -45 6 -24 8 -24 29 -11 12 9 31 36 42 60 22
49 35 60 28 23 -6 -30 14 -138 27 -151 15 -15 44 6 48 35 5 32 18 44 49 44 14
0 29 7 33 15 4 8 13 27 21 42 15 34 21 30 24 -19 5 -96 31 -134 61 -88 12 18
13 28 4 44 -9 18 -8 21 11 21 12 0 23 -8 26 -20 6 -22 11 -24 31 -11 9 5 13
22 11 44 -2 20 0 39 4 43 17 17 9 58 -36 187 -15 45 -17 60 -8 71 7 8 14 28
16 45 2 17 9 40 15 51 6 11 9 43 6 71 -5 53 13 123 21 86 3 -10 10 -16 17 -14z
m-604 -63 c0 -11 -7 -20 -15 -20 -17 0 -18 2 -9 24 9 23 24 20 24 -4z m280 10
c0 -5 -4 -10 -10 -10 -5 0 -10 5 -10 10 0 6 5 10 10 10 6 0 10 -4 10 -10z
m-410 -89 c0 -6 -4 -13 -10 -16 -5 -3 -10 1 -10 9 0 9 5 16 10 16 6 0 10 -4
10 -9z m3211 -75 c-21 -20 -22 -20 -15 -1 11 32 28 49 32 35 3 -7 -5 -22 -17
-34z m-3290 -9 c-13 -13 -26 -3 -16 12 3 6 11 8 17 5 6 -4 6 -10 -1 -17z
m-249 -24 c4 -32 -1 -42 -31 -75 -39 -41 -51 -46 -51 -23 0 8 -4 15 -9 15 -5
0 4 27 21 60 36 72 63 81 70 23z m-192 0 c-1 -18 -18 -35 -24 -24 -4 6 -4 16
-1 21 7 12 25 13 25 3z m3689 -24 c-6 -12 -37 -61 -69 -110 -158 -241 -293
-578 -359 -894 -18 -92 -51 -313 -51 -353 0 -15 -2 -15 -10 -2 -10 16 -8 50
16 219 39 281 125 552 259 816 86 171 196 345 216 345 6 0 5 -9 -2 -21z
m-3781 -1 c21 -21 13 -25 -22 -14 -19 6 -32 14 -30 18 8 12 38 10 52 -4z
m1002 -4 c0 -8 -5 -12 -10 -9 -6 4 -8 11 -5 16 9 14 15 11 15 -7z m-461 -48
c-3 -3 -11 5 -18 17 -13 21 -12 21 5 5 10 -10 16 -20 13 -22z m542 -53 c-6
-13 -11 -36 -11 -51 0 -15 -5 -34 -10 -42 -14 -22 -13 106 1 132 11 20 12 20
21 4 7 -12 7 -26 -1 -43z m-990 -61 c13 -42 5 -66 -9 -30 -6 14 -16 29 -21 33
-6 3 -11 15 -11 25 0 10 -5 20 -11 22 -7 2 -7 12 1 33 l12 30 14 -40 c9 -22
20 -55 25 -73z m-70 -17 c10 -27 19 -50 19 -50 0 0 -25 -1 -55 -1 -30 -1 -55
1 -55 4 0 22 46 102 58 100 8 -2 23 -25 33 -53z m206 33 c-3 -8 -6 -5 -6 6 -1
11 2 17 5 13 3 -3 4 -12 1 -19z m-463 -113 c3 -9 0 -15 -9 -15 -8 0 -15 7 -15
15 0 8 4 15 9 15 5 0 11 -7 15 -15z m376 -5 c0 -13 -28 -25 -38 -16 -3 4 0 11
8 16 20 13 30 12 30 0z m540 -70 c0 -5 -4 -10 -10 -10 -5 0 -10 5 -10 10 0 6
5 10 10 10 6 0 10 -4 10 -10z m-530 -20 c0 -5 -7 -10 -15 -10 -8 0 -15 5 -15
10 0 6 7 10 15 10 8 0 15 -4 15 -10z m350 -47 c0 -20 -3 -24 -11 -16 -7 7 -9
19 -6 27 10 24 17 19 17 -11z m-510 -12 c0 -5 -6 -14 -14 -20 -11 -9 -15 -7
-19 9 -4 15 0 20 14 20 10 0 19 -4 19 -9z m203 -37 c-1 -16 -5 -44 -9 -61 -6
-30 -4 -33 18 -33 13 0 28 4 34 10 6 6 15 6 24 0 13 -9 13 -11 0 -20 -8 -5
-10 -10 -4 -10 6 0 14 -14 18 -31 6 -30 7 -31 53 -27 l48 3 3 -38 c3 -34 1
-38 -27 -43 -17 -4 -33 -14 -36 -25 -4 -11 -11 -19 -16 -19 -5 0 -17 -8 -27
-18 -15 -15 -45 -21 -158 -29 -97 -6 -143 -6 -151 1 -15 14 -30 111 -15 103 5
-4 13 -19 17 -34 13 -51 45 -68 45 -23 0 25 46 75 55 60 5 -8 15 -4 32 12 20
18 24 30 19 56 -3 19 -1 30 5 27 15 -10 23 26 10 46 -7 12 -7 19 -1 19 5 0 10
16 10 35 0 19 4 35 9 35 5 0 13 9 16 21 10 29 30 17 28 -17z m450 -25 c3 -10
16 -23 29 -28 12 -6 19 -10 15 -10 -4 -1 -3 -9 2 -19 14 -27 0 -41 -47 -47
-41 -5 -42 -4 -32 15 13 25 16 66 6 97 -6 18 -4 22 7 17 8 -3 17 -14 20 -25z
m-816 -31 c-2 -13 -4 -5 -4 17 -1 22 1 32 4 23 2 -10 2 -28 0 -40z m179 2 c0
-12 -4 -16 -9 -11 -5 5 -6 14 -3 20 10 15 12 14 12 -9z m-266 -55 c0 5 3 6 6
3 9 -10 -16 -49 -27 -43 -5 4 -9 18 -9 32 0 21 2 24 15 13 8 -7 15 -9 15 -5z
m990 -15 c0 -5 -7 -10 -15 -10 -8 0 -15 5 -15 10 0 6 7 10 15 10 8 0 15 -4 15
-10z m388 -9 c3 -8 -1 -12 -9 -9 -7 2 -15 10 -17 17 -3 8 1 12 9 9 7 -2 15
-10 17 -17z m-1303 -21 c3 -11 3 -25 -1 -32 -5 -7 -7 -38 -6 -69 1 -31 -3 -69
-9 -85 l-12 -29 -8 30 c-5 17 -6 37 -3 45 8 19 17 86 17 128 1 36 12 43 22 12z
m685 -22 c0 -10 -4 -18 -10 -18 -5 0 -10 15 -10 33 0 24 3 28 10 17 5 -8 10
-23 10 -32z m-550 -9 c0 -6 -4 -7 -10 -4 -5 3 -10 11 -10 16 0 6 5 7 10 4 6
-3 10 -11 10 -16z m1250 -22 c0 -5 -4 -5 -10 -2 -5 3 -10 14 -10 23 0 15 2 15
10 2 5 -8 10 -19 10 -23z m-460 6 c0 -7 -13 -22 -30 -35 -16 -12 -30 -30 -30
-41 0 -12 -6 -17 -17 -16 -10 1 -25 0 -33 -4 -29 -11 -151 -17 -145 -7 3 6 13
10 22 10 13 0 13 3 3 16 -18 21 13 55 32 36 16 -16 41 -16 36 0 -5 13 27 34
72 48 37 12 90 8 90 -7z m6359 -485 c-1 -55 -26 -256 -40 -328 -76 -392 -214
-725 -437 -1050 -303 -443 -727 -767 -1171 -895 -126 -36 -162 -44 -231 -50
-38 -4 -35 -2 20 11 177 42 223 55 315 89 55 21 125 49 155 63 93 44 270 151
370 225 110 82 306 274 404 397 330 411 550 964 582 1460 3 58 8 108 11 113
12 20 24 2 22 -35z m-5254 -78 c3 -5 1 -10 -4 -10 -6 0 -11 5 -11 10 0 6 2 10
4 10 3 0 8 -4 11 -10z m1442 -192 c-3 -8 -6 -5 -6 6 -1 11 2 17 5 13 3 -3 4
-12 1 -19z m27 -439 c82 -586 387 -1099 820 -1376 176 -113 372 -191 559 -223
56 -9 96 -20 90 -23 -7 -4 -31 -5 -55 -1 -53 8 -294 72 -317 84 -9 5 -65 32
-126 60 -168 78 -263 144 -420 289 -169 157 -345 426 -434 666 -13 33 -29 76
-37 95 -20 51 -72 258 -95 380 -22 113 -37 426 -23 457 5 11 11 -44 15 -138 4
-86 15 -208 23 -270z m-1784 -1015 c0 -11 -8 -14 -27 -12 -34 4 -42 25 -11 30
29 5 38 1 38 -18z m3327 -610 c-3 -3 -12 -4 -19 -1 -8 3 -5 6 6 6 11 1 17 -2
13 -5z"/>
<path d="M5960 4974 c-42 -36 -60 -74 -60 -129 0 -60 22 -100 61 -114 18 -6
35 -9 37 -6 3 3 0 5 -6 5 -30 0 -52 40 -52 95 0 67 18 114 55 143 37 29 61 28
96 -7 29 -29 29 -29 29 -6 0 17 -8 26 -31 34 -53 18 -95 13 -129 -15z"/>
<path d="M6248 4947 c10 -11 3 -37 -29 -123 -22 -60 -45 -111 -50 -115 -5 -3
7 -13 28 -23 27 -13 33 -14 25 -3 -9 11 -8 24 4 60 9 26 20 50 26 53 5 3 36
-4 68 -16 l58 -22 -15 -46 c-9 -26 -20 -53 -26 -59 -6 -9 -4 -15 9 -19 11 -4
21 -8 24 -10 3 -1 6 5 7 14 2 28 75 216 87 224 6 4 -1 11 -17 17 -36 14 -37
14 -31 -2 5 -13 -30 -107 -40 -107 -21 0 -116 46 -116 56 0 7 9 34 20 60 11
26 19 48 18 48 -2 1 -16 8 -32 15 -25 10 -28 10 -18 -2z"/>
<path d="M6058 4827 c17 -20 -4 -86 -31 -97 -31 -12 4 -13 36 -1 18 7 26 20
32 48 4 21 11 44 17 51 8 9 2 12 -27 12 -30 0 -35 -3 -27 -13z"/>
<path d="M5135 4821 c-3 -5 -1 -12 4 -15 5 -3 11 1 15 9 6 16 -9 21 -19 6z"/>
<path d="M6540 4707 c-25 -51 -54 -101 -66 -113 l-21 -22 30 -17 c17 -10 27
-13 24 -8 -4 6 6 32 21 58 71 123 91 169 80 182 -6 7 -13 13 -17 12 -3 0 -26
-42 -51 -92z"/>
<path d="M6698 4719 c6 -7 12 -22 12 -33 0 -17 2 -18 10 -6 14 22 12 28 -12
41 -19 9 -21 9 -10 -2z"/>
<path d="M4938 4706 c-21 -16 -21 -16 137 -70 154 -53 157 -54 146 -25 -6 19
-32 33 -122 66 -125 47 -136 49 -161 29z"/>
<path d="M6626 4615 c4 -8 7 -15 9 -15 2 0 5 7 9 15 3 9 0 15 -9 15 -9 0 -12
-6 -9 -15z"/>
<path d="M6780 4538 c-30 -39 -66 -83 -80 -98 l-26 -28 23 -28 c13 -16 21 -21
17 -12 -4 12 17 46 71 114 65 81 75 98 64 109 -12 11 -23 2 -69 -57z"/>
<path d="M5720 4578 c-256 -16 -542 -133 -770 -316 -68 -54 -198 -180 -255
-247 -71 -83 -192 -269 -250 -384 -131 -263 -211 -596 -209 -871 4 -417 172
-827 446 -1086 166 -157 371 -259 590 -294 121 -20 349 -8 470 24 275 72 526
227 733 449 290 312 472 723 511 1150 4 43 11 80 15 83 12 7 11 139 -1 265
-55 561 -345 988 -785 1158 -162 63 -299 82 -495 69z m330 -38 c459 -99 802
-480 910 -1012 26 -127 42 -329 31 -393 -8 -49 -9 -48 -10 31 -8 585 -258
1051 -676 1266 -160 81 -314 118 -495 118 -690 0 -1343 -614 -1505 -1416 -14
-67 -25 -137 -26 -155 -1 -19 -5 -45 -10 -59 -12 -36 0 97 17 190 37 192 94
355 192 545 298 574 845 934 1382 909 58 -3 143 -14 190 -24z m107 -191 c1
-24 1 -24 -4 -1 -3 16 -10 22 -19 18 -9 -3 -12 -1 -9 5 11 17 30 4 32 -22z
m-750 -35 l63 -56 -5 -47 c-3 -25 1 -89 9 -141 10 -69 14 -84 16 -55 2 39 3
38 11 -15 5 -30 7 -86 4 -125 -3 -57 -2 -62 5 -30 8 37 8 36 5 -15 -4 -53 41
-539 53 -570 9 -24 31 130 27 185 -4 39 -3 45 5 25 7 -19 8 -12 5 30 -3 42 -2
49 5 30 7 -19 8 -12 5 30 -3 35 -1 46 3 30 7 -22 9 -19 15 24 4 26 5 67 2 90
-3 27 -2 33 3 17 6 -18 13 11 26 106 10 72 16 136 12 142 -4 6 -4 39 1 73 l7
63 7 -45 c4 -25 8 -218 8 -430 1 -359 6 -421 26 -337 4 15 3 27 -2 27 -5 0
-10 8 -10 18 2 394 -5 794 -14 782 -8 -11 -9 -2 -5 34 3 27 6 58 6 70 0 16 2
18 9 7 5 -8 10 -205 10 -438 1 -233 5 -433 10 -444 5 -16 20 22 60 150 29 95
50 179 47 187 -3 8 -2 13 3 10 11 -7 84 241 77 261 -3 8 -2 12 3 9 12 -8 33
71 26 97 -4 14 -3 18 3 9 6 -9 12 -2 20 25 55 192 47 177 108 218 44 29 58 34
65 23 5 -7 9 -17 9 -23 0 -5 6 -43 14 -82 7 -40 10 -71 6 -68 -11 7 -83 -173
-74 -186 4 -7 3 -9 -3 -6 -13 8 -57 -99 -47 -114 4 -7 3 -9 -3 -6 -14 9 -37
-48 -27 -64 4 -7 3 -10 -3 -6 -14 9 -37 -48 -27 -64 4 -7 3 -10 -3 -6 -13 8
-127 -258 -117 -274 4 -7 3 -9 -3 -6 -6 4 -17 -8 -24 -26 -7 -17 -24 -57 -39
-87 -14 -31 -30 -65 -34 -75 -7 -20 -7 -20 12 0 11 11 95 121 187 245 214 286
215 288 119 119 -46 -79 -52 -95 -32 -83 7 4 8 3 4 -5 -4 -6 -11 -9 -16 -6 -7
4 -100 -149 -200 -330 -25 -46 108 87 448 448 l205 217 89 0 c48 0 88 -2 88
-5 0 -3 -16 -44 -35 -92 -25 -63 -44 -95 -68 -114 -39 -30 -386 -285 -585
-428 -79 -57 -141 -105 -140 -107 2 -2 129 44 282 101 153 58 281 105 284 105
4 0 -43 -27 -103 -61 -262 -145 -400 -238 -381 -256 10 -10 143 14 291 52 218
57 459 117 487 122 20 4 40 -5 84 -38 54 -41 56 -44 33 -50 -13 -4 -18 -7 -11
-8 12 -1 -59 -115 -81 -128 -16 -10 -127 -12 -516 -13 -223 0 -381 -4 -375 -9
5 -5 95 -37 201 -72 106 -35 190 -65 188 -67 -2 -2 -92 13 -200 33 -108 20
-203 35 -211 33 -8 -2 144 -88 338 -193 194 -104 375 -202 401 -217 27 -16 47
-24 45 -18 -2 7 -140 85 -306 174 -166 90 -306 166 -310 171 -4 4 9 0 28 -10
75 -38 576 -308 587 -317 7 -6 10 -20 8 -32 -3 -11 1 -43 9 -71 9 -27 12 -52
8 -56 -4 -3 -39 -17 -78 -31 l-72 -25 -33 25 c-19 14 -96 75 -172 135 -77 60
-141 106 -144 104 -3 -3 12 -18 34 -34 21 -15 92 -71 158 -123 66 -53 131
-104 145 -113 13 -9 20 -17 15 -17 -6 0 -151 111 -323 248 -173 136 -326 255
-340 266 -15 10 -19 16 -10 13 9 -3 83 -58 163 -122 81 -64 149 -115 151 -112
3 2 -68 62 -156 132 -132 104 -163 125 -175 115 -8 -7 -13 -16 -10 -20 3 -5 0
-12 -6 -16 -8 -4 -9 -3 -5 4 12 19 -9 14 -38 -9 -32 -25 -32 -25 -84 60 -21
36 -43 66 -48 68 -5 2 -34 -33 -63 -77 -46 -67 -58 -79 -75 -74 -19 6 -20 5
-6 -12 12 -15 10 -14 -16 3 -17 12 -37 30 -45 40 -8 11 -3 9 12 -4 14 -13 29
-23 33 -23 12 0 -12 27 -54 60 l-37 29 -374 -309 c-205 -171 -376 -310 -379
-310 -3 0 -28 15 -55 33 l-51 32 19 80 18 80 237 120 c130 66 328 167 440 223
112 57 202 106 200 108 -4 4 -334 -56 -493 -90 -38 -8 -71 -13 -73 -12 -2 3
89 39 415 164 123 47 151 65 91 56 -65 -9 -806 -74 -841 -74 -21 0 -37 4 -37
9 0 4 44 9 98 10 53 1 125 6 160 11 34 6 90 14 125 19 34 6 109 11 167 12 58
1 115 5 126 10 12 4 86 11 165 14 166 8 351 28 329 37 -8 3 -28 4 -45 2 -16
-2 -109 -8 -205 -14 -96 -6 -240 -16 -320 -22 -80 -7 -149 -11 -154 -10 -5 2
-61 -2 -125 -7 -64 -6 -161 -13 -216 -17 -55 -3 -103 -8 -107 -10 -3 -2 -16
12 -28 32 l-23 35 34 36 c80 85 60 78 178 64 241 -28 678 -81 699 -85 12 -2
22 0 22 3 0 7 -321 191 -333 191 -5 0 -5 -5 -1 -12 4 -6 3 -9 -2 -6 -168 94
-214 121 -211 124 1 2 30 -6 62 -16 33 -11 48 -18 33 -15 -16 3 -28 3 -28 1 0
-8 131 -78 137 -73 2 3 -8 12 -24 21 -15 8 -25 15 -20 16 4 0 109 -29 233 -65
124 -36 230 -65 236 -65 6 0 -1 9 -16 21 -14 11 -31 17 -37 14 -6 -4 -47 3
-92 16 -44 12 -76 24 -71 26 5 2 32 -3 59 -11 26 -8 52 -13 57 -10 5 3 16 0
24 -7 8 -6 17 -10 19 -7 3 3 -97 79 -222 169 -125 90 -268 194 -317 230 l-91
65 -11 100 c-6 54 -10 100 -10 100 1 1 35 11 76 23 71 20 76 20 92 3 17 -17
317 -387 462 -569 44 -56 84 -102 87 -102 4 -1 -47 132 -112 296 -65 163 -116
300 -113 304 6 10 -46 102 -53 96 -2 -3 3 -22 12 -42 8 -21 14 -40 11 -42 -2
-2 -22 42 -44 97 -22 55 -37 98 -33 95 5 -2 24 -31 43 -62 19 -32 101 -168
182 -302 81 -134 145 -245 143 -247 -2 -3 -48 70 -102 161 -54 91 -99 164
-102 162 -2 -3 49 -93 113 -201 65 -108 119 -194 122 -192 2 2 -2 15 -9 28 -7
12 -13 43 -15 68 -1 31 1 39 7 25 29 -74 -36 187 -167 664 l-33 124 30 73 31
74 45 -37 c24 -20 51 -46 59 -57 10 -15 14 -16 14 -5 0 16 -109 116 -122 112
-5 -2 -8 2 -8 7 0 18 12 11 77 -46z m760 -26 c-3 -7 -5 -2 -5 12 0 14 2 19 5
13 2 -7 2 -19 0 -25z m10 -40 c-3 -8 -6 -5 -6 6 -1 11 2 17 5 13 3 -3 4 -12 1
-19z m10 -55 c-3 -10 -5 -4 -5 12 0 17 2 24 5 18 2 -7 2 -21 0 -30z m-710 -35
c-2 -13 -4 -5 -4 17 -1 22 1 32 4 23 2 -10 2 -28 0 -40z m10 -80 c-2 -13 -4
-5 -4 17 -1 22 1 32 4 23 2 -10 2 -28 0 -40z m-190 0 c-3 -8 -6 -5 -6 6 -1 11
2 17 5 13 3 -3 4 -12 1 -19z m10 -40 c-3 -8 -6 -5 -6 6 -1 11 2 17 5 13 3 -3
4 -12 1 -19z m20 -70 c-3 -8 -6 -5 -6 6 -1 11 2 17 5 13 3 -3 4 -12 1 -19z
m962 -33 c-24 -40 -47 -60 -29 -24 12 24 40 59 46 59 2 0 -6 -16 -17 -35z
m-935 -55 c4 -24 3 -29 -3 -15 -4 11 -11 36 -15 55 -4 24 -3 29 3 15 4 -11 11
-36 15 -55z m313 33 c-3 -10 -5 -4 -5 12 0 17 2 24 5 18 2 -7 2 -21 0 -30z
m-10 -70 c-3 -10 -5 -4 -5 12 0 17 2 24 5 18 2 -7 2 -21 0 -30z m-694 -75 c87
-107 169 -209 315 -390 48 -59 88 -106 89 -104 2 1 -9 31 -23 65 -14 35 -23
65 -21 67 2 2 20 -37 40 -88 20 -50 35 -93 33 -95 -3 -3 -118 137 -444 542
-40 49 -80 93 -90 97 -16 6 -16 7 0 7 10 1 52 -42 101 -101z m1731 94 c2 -4
-28 -6 -67 -4 -111 5 -121 9 -25 11 48 0 89 -3 92 -7z m-1327 -44 c-3 -8 -6
-5 -6 6 -1 11 2 17 5 13 3 -3 4 -12 1 -19z m-647 8 c0 -2 -7 -7 -16 -10 -8 -3
-12 -2 -9 4 6 10 25 14 25 6z m927 -48 c-3 -7 -5 -2 -5 12 0 14 2 19 5 13 2
-7 2 -19 0 -25z m-258 -28 c0 -9 -4 -8 -9 5 -5 11 -9 27 -9 35 0 9 4 8 9 -5 5
-11 9 -27 9 -35z m138 -12 c-2 -13 -4 -5 -4 17 -1 22 1 32 4 23 2 -10 2 -28 0
-40z m-327 -13 c0 -5 -5 -3 -10 5 -5 8 -10 20 -10 25 0 6 5 3 10 -5 5 -8 10
-19 10 -25z m-493 3 c-3 -8 -6 -5 -6 6 -1 11 2 17 5 13 3 -3 4 -12 1 -19z
m690 -20 c-3 -8 -6 -5 -6 6 -1 11 2 17 5 13 3 -3 4 -12 1 -19z m-177 -33 c0
-5 -5 -3 -10 5 -5 8 -10 20 -10 25 0 6 5 3 10 -5 5 -8 10 -19 10 -25z m317
-27 c-2 -13 -4 -5 -4 17 -1 22 1 32 4 23 2 -10 2 -28 0 -40z m-820 -10 c-3 -7
-5 -2 -5 12 0 14 2 19 5 13 2 -7 2 -19 0 -25z m910 0 c-3 -7 -5 -2 -5 12 0 14
2 19 5 13 2 -7 2 -19 0 -25z m-387 -13 c0 -5 -5 -3 -10 5 -5 8 -10 20 -10 25
0 6 5 3 10 -5 5 -8 10 -19 10 -25z m177 3 c-3 -8 -6 -5 -6 6 -1 11 2 17 5 13
3 -3 4 -12 1 -19z m-143 -88 c3 -14 -3 -7 -13 15 -11 22 -20 45 -20 50 0 15
26 -37 33 -65z m170 0 c4 -24 3 -29 -3 -15 -4 11 -11 36 -15 55 -4 24 -3 29 3
15 4 -11 11 -36 15 -55z m103 18 c-2 -13 -4 -5 -4 17 -1 22 1 32 4 23 2 -10 2
-28 0 -40z m-472 -211 c200 -145 280 -206 234 -181 -28 16 -589 425 -589 430
0 6 46 -27 355 -249z m482 121 c-2 -13 -4 -5 -4 17 -1 22 1 32 4 23 2 -10 2
-28 0 -40z m603 48 c0 -2 -8 -10 -17 -17 -16 -13 -17 -12 -4 4 13 16 21 21 21
13z m-846 -76 c3 -14 -3 -7 -13 15 -11 22 -20 45 -20 50 0 15 26 -37 33 -65z
m143 38 c-3 -8 -6 -5 -6 6 -1 11 2 17 5 13 3 -3 4 -12 1 -19z m10 -40 c-3 -8
-6 -5 -6 6 -1 11 2 17 5 13 3 -3 4 -12 1 -19z m112 -39 c0 13 3 22 6 19 3 -2
2 -27 -2 -54 -6 -41 -8 -45 -14 -24 -4 14 -7 41 -7 60 l0 35 8 -30 c7 -27 8
-27 9 -6z m1056 13 c-13 -11 -65 -33 -65 -27 0 2 12 11 28 19 30 17 52 21 37
8z m-809 -80 c-17 -16 -18 -16 -5 5 7 12 15 20 18 17 3 -2 -3 -12 -13 -22z
m184 25 c0 -2 -15 -16 -32 -33 l-33 -29 29 33 c28 30 36 37 36 29z m-90 -90
c0 -2 -9 -12 -20 -22 -24 -21 -27 -14 -4 9 15 15 24 20 24 13z m-955 -17 c13
-5 14 -9 5 -9 -8 0 -24 4 -35 9 -13 5 -14 9 -5 9 8 0 24 -4 35 -9z m70 -20
c13 -5 14 -9 5 -9 -8 0 -24 4 -35 9 -13 5 -14 9 -5 9 8 0 24 -4 35 -9z m70
-20 c13 -5 14 -9 5 -9 -8 0 -24 4 -35 9 -13 5 -14 9 -5 9 8 0 24 -4 35 -9z
m70 -20 c13 -5 14 -9 5 -9 -8 0 -24 4 -35 9 -13 5 -14 9 -5 9 8 0 24 -4 35 -9z
m1532 -6 c-3 -3 -12 -4 -19 -1 -8 3 -5 6 6 6 11 1 17 -2 13 -5z m160 -98 c9
-14 -44 26 -92 69 -29 26 -22 23 23 -11 35 -26 66 -52 69 -58z m-908 73 c-22
-14 -33 -10 -19 6 7 8 17 12 22 9 6 -4 5 -10 -3 -15z m708 15 c-3 -3 -12 -4
-19 -1 -8 3 -5 6 6 6 11 1 17 -2 13 -5z m-1489 -91 c35 -20 61 -37 59 -40 -5
-4 -195 104 -212 120 -10 10 7 1 153 -80z m1449 81 c-3 -3 -12 -4 -19 -1 -8 3
-5 6 6 6 11 1 17 -2 13 -5z m-2024 -61 c-7 -2 -21 -2 -30 0 -10 3 -4 5 12 5
17 0 24 -2 18 -5z m70 -10 c-7 -2 -21 -2 -30 0 -10 3 -4 5 12 5 17 0 24 -2 18
-5z m85 -10 c-10 -2 -26 -2 -35 0 -10 3 -2 5 17 5 19 0 27 -2 18 -5z m85 -10
c-7 -2 -21 -2 -30 0 -10 3 -4 5 12 5 17 0 24 -2 18 -5z m2133 -60 c-12 -117
-55 -313 -95 -433 -40 -120 -127 -317 -136 -308 -3 3 15 47 39 99 87 183 158
441 172 627 4 45 11 82 17 82 6 0 7 -26 3 -67z m-2053 50 c-7 -2 -21 -2 -30 0
-10 3 -4 5 12 5 17 0 24 -2 18 -5z m70 -10 c-7 -2 -19 -2 -25 0 -7 3 -2 5 12
5 14 0 19 -2 13 -5z m1194 1 c-3 -3 -12 -4 -19 -1 -8 3 -5 6 6 6 11 1 17 -2
13 -5z m-1114 -11 c-7 -2 -21 -2 -30 0 -10 3 -4 5 12 5 17 0 24 -2 18 -5z m95
-10 c-10 -2 -26 -2 -35 0 -10 3 -2 5 17 5 19 0 27 -2 18 -5z m108 -9 c17 -14
17 -15 1 -10 -10 3 -35 7 -55 7 l-37 1 30 8 c17 4 33 8 36 9 3 0 14 -6 25 -15z
m-9 -110 c-3 -3 -12 -4 -19 -1 -8 3 -5 6 6 6 11 1 17 -2 13 -5z m1206 -1 c-73
-2 -193 -2 -265 0 -73 1 -14 3 132 3 146 0 205 -2 133 -3z m-519 -12 c3 -4 -6
-6 -19 -3 -14 2 -25 6 -25 8 0 8 39 4 44 -5z m-1670 -381 c96 -589 485 -1023
990 -1105 515 -84 1081 222 1407 761 28 47 53 83 56 81 11 -11 -124 -211 -219
-324 -188 -223 -444 -403 -688 -484 -167 -55 -409 -76 -563 -49 -273 48 -513
191 -685 407 -209 262 -335 629 -330 963 l1 115 8 -135 c4 -74 14 -178 23
-230z m1644 299 c24 0 25 -1 7 -9 -11 -5 -15 -9 -9 -9 5 -1 19 -8 30 -16 10
-9 -5 -4 -33 10 -49 23 -75 45 -37 31 9 -3 28 -6 42 -7z m-280 -93 c13 -23 15
-30 5 -17 -10 13 -28 43 -41 65 -13 23 -15 30 -5 17 10 -13 28 -43 41 -65z
m345 77 c-7 -2 -19 -2 -25 0 -7 3 -2 5 12 5 14 0 19 -2 13 -5z m-688 -13 c-3
-5 -14 -10 -23 -10 -15 0 -15 2 -2 10 20 13 33 13 25 0z m748 3 c-7 -2 -21 -2
-30 0 -10 3 -4 5 12 5 17 0 24 -2 18 -5z m50 -10 c-7 -2 -19 -2 -25 0 -7 3 -2
5 12 5 14 0 19 -2 13 -5z m50 -10 c-7 -2 -19 -2 -25 0 -7 3 -2 5 12 5 14 0 19
-2 13 -5z m-360 -318 c106 -170 244 -390 306 -489 61 -98 111 -180 109 -181
-5 -5 -501 -35 -505 -31 -2 2 2 34 8 72 22 127 -8 233 -81 282 -28 19 -44 23
-82 19 -121 -11 -192 -145 -168 -316 6 -41 8 -76 6 -78 -7 -7 -496 -37 -502
-31 -5 6 186 301 209 323 14 13 -8 -21 -111 -178 -47 -70 -83 -130 -80 -132 3
-3 99 2 214 10 115 8 222 15 238 15 21 0 27 4 22 15 -14 37 -17 145 -7 197 46
218 283 258 350 59 13 -40 14 -150 2 -203 l-9 -38 37 0 c53 0 414 21 428 26
12 3 -6 33 -142 244 -13 19 -103 163 -200 320 -98 157 -193 309 -212 338 l-35
53 -50 -73 c-28 -40 -131 -194 -230 -343 -99 -148 -187 -277 -195 -285 -12
-12 235 367 442 678 15 23 32 41 36 40 5 -2 95 -142 202 -313z m420 308 c-7
-2 -19 -2 -25 0 -7 3 -2 5 12 5 14 0 19 -2 13 -5z m54 -9 c-3 -3 -12 -4 -19
-1 -8 3 -5 6 6 6 11 1 17 -2 13 -5z m143 -4 c18 -12 2 -12 -25 0 -13 6 -15 9
-5 9 8 0 22 -4 30 -9z m-1049 -17 c13 -16 12 -17 -3 -4 -10 7 -18 15 -18 17 0
8 8 3 21 -13z m962 10 c-7 -2 -19 -2 -25 0 -7 3 -2 5 12 5 14 0 19 -2 13 -5z
m54 -9 c-3 -3 -12 -4 -19 -1 -8 3 -5 6 6 6 11 1 17 -2 13 -5z m123 -14 c64
-17 42 -21 -36 -6 -43 8 -61 15 -49 18 11 3 25 4 32 2 6 -1 30 -8 53 -14z
m-1845 -50 c-27 -12 -43 -12 -25 0 8 5 22 9 30 9 10 0 8 -3 -5 -9z m-105 -516
c0 -2 -13 2 -30 11 -16 9 -30 18 -30 21 0 2 14 -2 30 -11 17 -9 30 -18 30 -21z
m35 -22 c-3 -3 -11 0 -18 7 -9 10 -8 11 6 5 10 -3 15 -9 12 -12z m1095 -491
c0 -16 2 -35 5 -43 7 -18 -24 -58 -31 -40 -3 6 -14 12 -24 12 -10 0 -21 6 -23
13 -3 7 -6 5 -6 -5 -1 -20 -36 -42 -52 -33 -5 4 -9 14 -8 23 3 39 -3 45 -14
12 -9 -27 -17 -35 -37 -35 -23 0 -25 3 -25 49 0 59 22 81 53 53 17 -16 20 -16
25 -2 4 8 17 15 31 15 19 0 26 -7 31 -32 l8 -32 21 37 c25 44 46 48 46 8z
m-244 -28 c-3 -21 -6 -46 -6 -55 0 -10 -7 -18 -16 -18 -12 0 -15 7 -12 25 4
17 0 29 -11 34 -14 8 -14 11 3 30 31 35 50 27 42 -16z"/>
<path d="M5682 4005 c0 -16 2 -22 5 -12 2 9 2 23 0 30 -3 6 -5 -1 -5 -18z"/>
<path d="M5493 3935 c0 -22 2 -30 4 -17 2 12 2 30 0 40 -3 9 -5 -1 -4 -23z"/>
<path d="M5230 3719 c12 -23 24 -38 27 -35 5 5 -35 76 -43 76 -2 0 5 -18 16
-41z"/>
<path d="M5496 3350 c4 -19 8 -50 9 -68 1 -18 9 -40 18 -49 13 -14 13 -5 -4
63 -21 78 -39 121 -23 54z"/>
<path d="M5738 2999 c-14 -9 -4 -14 44 -22 18 -3 25 0 21 9 -6 15 -47 24 -65
13z"/>
<path d="M4748 4564 c-37 -19 -36 -25 2 -11 25 10 34 8 57 -9 57 -42 92 -141
61 -172 -8 -8 -8 -12 -1 -12 14 0 43 72 43 106 0 86 -87 139 -162 98z"/>
<path d="M6895 4525 c8 -37 -25 -78 -58 -73 -19 3 -25 -6 -44 -72 -16 -54 -19
-78 -11 -87 19 -23 25 -14 37 57 12 66 14 70 40 70 15 0 36 6 46 14 25 18 26
80 2 104 -17 16 -17 15 -12 -13z"/>
<path d="M4674 4485 c-31 -75 -8 -156 52 -181 30 -12 39 -12 69 0 41 18 45 25
9 18 -19 -3 -34 3 -59 28 -41 39 -59 89 -52 136 7 44 0 43 -19 -1z"/>
<path d="M5010 4515 c0 -5 5 -17 10 -25 5 -8 10 -10 10 -5 0 6 -5 17 -10 25
-5 8 -10 11 -10 5z"/>
<path d="M6615 4501 c-11 -5 -27 -6 -35 -3 -12 4 -11 1 3 -14 17 -18 18 -18
39 4 24 24 24 25 -7 13z"/>
<path d="M7015 4209 c-44 -39 -88 -74 -98 -77 -16 -7 -16 -9 -2 -29 15 -21 17
-21 33 -5 9 9 52 46 94 81 67 54 76 66 67 82 -5 11 -11 19 -12 19 -1 -1 -38
-33 -82 -71z"/>
<path d="M7170 4133 c0 -6 -3 -20 -6 -30 -7 -17 -6 -17 12 -1 14 14 16 21 6
30 -8 8 -12 9 -12 1z"/>
<path d="M4480 4110 c-41 -10 -100 -23 -131 -29 -44 -9 -58 -17 -72 -40 l-17
-29 33 8 c17 4 90 21 160 38 70 16 130 32 134 35 6 7 -16 38 -26 36 -3 -1 -40
-9 -81 -19z"/>
<path d="M7063 4078 c-2 -19 -1 -19 18 -3 23 22 23 20 1 22 -11 1 -18 -6 -19
-19z"/>
<path d="M6980 3980 c0 -3 4 -11 9 -18 7 -12 13 -12 36 1 l29 14 -37 5 c-20 2
-37 2 -37 -2z"/>
<path d="M7240 3974 c0 -8 -162 -98 -198 -110 -1 0 3 -15 9 -32 l11 -32 18 23
c10 12 57 41 104 62 72 34 84 43 79 60 -6 24 -23 44 -23 29z"/>
<path d="M4405 3931 c43 -45 45 -47 45 -28 -1 6 -20 25 -43 41 l-42 28 40 -41z"/>
<path d="M4220 3882 c-24 -11 -53 -35 -70 -57 -15 -19 -14 -19 10 -2 60 41
156 -1 180 -79 7 -25 8 -22 9 23 1 44 -3 58 -26 83 -28 30 -75 45 -103 32z"/>
<path d="M7281 3818 c-2 -26 -52 -79 -88 -94 -40 -17 -85 -18 -101 -2 -7 7
-12 8 -12 2 0 -6 10 -20 23 -32 28 -27 78 -29 117 -5 37 21 72 85 67 121 -2
15 -5 19 -6 10z"/>
<path d="M4110 3717 c0 -83 65 -140 135 -117 18 6 40 19 49 29 16 18 15 18
-26 14 -56 -6 -106 21 -135 73 l-23 39 0 -38z"/>
<path d="M7260 3568 c-90 -29 -120 -53 -120 -95 l0 -26 20 25 c18 23 129 67
180 71 14 1 20 8 20 24 0 12 -3 23 -7 25 -5 2 -46 -9 -93 -24z"/>
<path d="M4016 3497 c-3 -12 -4 -22 -3 -23 1 -2 46 -18 99 -37 l96 -34 11 23
c8 19 8 24 -3 24 -7 0 -54 15 -104 34 -89 33 -90 33 -96 13z"/>
<path d="M7345 3380 c-13 -6 -15 -9 -5 -9 8 0 22 4 30 9 18 12 2 12 -25 0z"/>
<path d="M7188 3333 c6 -2 18 -2 25 0 6 3 1 5 -13 5 -14 0 -19 -2 -12 -5z"/>
<path d="M4082 3323 c-7 -3 -28 -29 -47 -59 -39 -60 -57 -73 -80 -54 -20 17
-20 -4 1 -24 34 -34 80 -7 129 75 16 26 28 34 48 34 32 -1 35 10 8 25 -21 11
-38 12 -59 3z"/>
<path d="M3953 3303 c-3 -10 -8 -22 -11 -28 -3 -5 8 1 24 15 16 14 31 26 33
28 2 1 -6 2 -18 2 -12 0 -24 -8 -28 -17z"/>
<path d="M7222 3220 c-31 -19 -72 -73 -72 -96 0 -7 15 3 34 22 30 30 40 34 89
34 40 0 61 -6 81 -21 23 -18 26 -18 26 -4 0 9 -15 32 -34 51 -40 40 -75 44
-124 14z"/>
<path d="M4128 3185 c-21 -18 -24 -25 -13 -29 9 -3 22 5 31 20 22 33 15 37
-18 9z"/>
<path d="M4029 3079 c-11 -11 -29 -40 -39 -65 -22 -49 -43 -63 -71 -45 -22 13
-24 8 -9 -20 13 -24 62 -25 85 -2 10 9 25 35 35 58 21 49 43 69 70 62 24 -6
25 -3 4 17 -21 22 -50 20 -75 -5z"/>
<path d="M3910 3059 c-18 -33 -7 -36 24 -6 26 25 27 27 8 27 -12 0 -26 -9 -32
-21z"/>
<path d="M7333 3034 c-23 -36 -19 -43 11 -21 10 7 16 22 14 34 -3 18 -6 16
-25 -13z"/>
<path d="M7130 3023 c0 -12 9 -27 20 -33 25 -13 25 -2 0 30 -19 25 -20 25 -20
3z"/>
<path d="M4091 2953 c-23 -22 -24 -23 -3 -23 12 0 23 8 27 21 9 28 4 29 -24 2z"/>
<path d="M7120 2903 c0 -4 13 -15 29 -23 96 -49 131 -72 126 -80 -3 -5 -22
-13 -43 -17 -47 -9 -42 -8 -75 -21 -16 -7 -37 -12 -47 -12 -16 0 -38 -45 -27
-56 6 -6 247 77 247 86 0 4 -44 34 -97 66 -114 69 -113 68 -113 57z"/>
<path d="M3878 2810 c3 -42 7 -50 20 -46 10 3 59 7 109 8 l93 3 0 27 c0 20 -4
25 -17 23 -10 -2 -57 -6 -105 -9 l-88 -5 0 24 c0 14 -3 25 -7 25 -5 0 -6 -23
-5 -50z"/>
<path d="M4075 2651 c-15 -14 -157 -71 -177 -71 -12 0 -18 -8 -18 -24 0 -36
11 -38 65 -10 27 13 73 32 102 41 53 17 58 23 45 56 -5 11 -11 14 -17 8z"/>
<path d="M7252 2574 c3 -17 21 -21 26 -6 1 5 -4 12 -13 16 -11 4 -15 1 -13
-10z"/>
<path d="M7022 2512 l-10 -29 106 -31 c59 -17 108 -29 109 -29 1 1 4 14 8 30
6 24 4 27 -18 27 -29 0 -157 38 -173 51 -8 7 -15 1 -22 -19z"/>
<path d="M4028 2503 c12 -2 22 -8 22 -12 0 -4 -31 -37 -68 -74 -60 -58 -68
-70 -64 -96 4 -26 6 -28 18 -16 8 7 14 16 14 20 0 3 39 43 86 88 l87 82 -39 7
c-21 4 -48 6 -59 6 -17 -1 -17 -1 3 -5z"/>
<path d="M4118 2388 c-2 -6 -26 -20 -54 -30 -27 -10 -38 -16 -24 -13 14 4 42
9 63 12 21 3 37 11 37 19 0 17 -17 27 -22 12z"/>
<path d="M7172 2343 c-15 -6 -6 -23 14 -23 8 0 14 7 14 15 0 15 -6 17 -28 8z"/>
<path d="M6931 2281 c-10 -18 -2 -25 86 -73 93 -51 99 -53 112 -35 7 10 11 20
10 21 -5 3 -181 100 -191 104 -4 2 -11 -6 -17 -17z"/>
<path d="M4149 2263 c-9 -20 -167 -113 -182 -107 -15 5 -15 2 -6 -25 7 -20 18
-31 31 -31 10 0 17 4 14 8 -5 9 144 102 164 102 7 0 9 8 5 23 -9 27 -21 42
-26 30z"/>
<path d="M4145 2110 c3 -6 -22 -46 -56 -90 -57 -74 -61 -83 -53 -112 l9 -31
15 29 c16 32 99 143 139 187 l25 27 -43 0 c-26 0 -40 -4 -36 -10z"/>
<path d="M6833 2096 l-28 -24 45 5 c58 6 106 -24 138 -87 l22 -44 0 53 c0 47
-4 57 -34 87 -43 43 -100 47 -143 10z"/>
<path d="M4229 2013 c-9 -10 -25 -23 -35 -30 -15 -9 -11 -9 19 -1 25 8 37 17
37 30 0 22 -2 22 -21 1z"/>
<path d="M6766 1987 c-12 -40 2 -94 32 -127 36 -38 77 -46 121 -22 42 23 57
49 18 31 -21 -10 -33 -8 -71 11 -52 25 -82 61 -88 105 l-4 30 -8 -28z"/>
<path d="M4227 1869 c-60 -31 -93 -123 -67 -184 7 -16 9 -13 9 16 2 70 96 165
154 155 35 -7 34 0 -3 19 -37 19 -47 19 -93 -6z"/>
<path d="M6646 1842 c-3 -5 14 -26 37 -48 23 -21 32 -28 21 -14 -12 14 -28 35
-36 48 -9 13 -18 19 -22 14z"/>
<path d="M4380 1786 c0 -69 -113 -177 -167 -160 -16 5 -15 3 1 -10 45 -37 129
-8 162 57 15 29 21 113 9 125 -3 3 -5 -2 -5 -12z"/>
<path d="M6765 1692 c-3 -3 -66 -8 -140 -12 -75 -4 -139 -10 -142 -14 -3 -3 1
-14 10 -23 14 -16 28 -17 154 -9 126 8 140 10 155 31 17 22 16 23 -7 27 -14 3
-27 3 -30 0z"/>
<path d="M4439 1643 c-13 -15 -11 -16 10 -10 13 3 35 1 49 -4 26 -10 26 -10 7
10 -22 25 -48 27 -66 4z"/>
<path d="M4540 1556 c0 -44 -12 -70 -54 -114 -36 -39 -70 -55 -97 -47 -24 8
-49 55 -49 92 0 22 -2 25 -10 13 -18 -28 -10 -52 29 -91 45 -45 86 -51 137
-20 43 26 78 101 71 148 -9 53 -27 66 -27 19z"/>
<path d="M6345 1555 c-28 -23 -29 -24 -8 -25 15 0 28 -11 40 -32 12 -25 18
-29 21 -16 2 9 -4 28 -14 42 -13 21 -14 29 -4 41 19 23 -2 18 -35 -10z"/>
<path d="M6576 1550 c17 -19 38 -45 46 -58 11 -16 18 -20 23 -12 4 6 5 12 3
13 -2 1 -26 22 -53 47 -39 35 -43 37 -19 10z"/>
<path d="M6294 1505 c22 -54 22 -52 -7 -32 -38 25 -50 13 -31 -31 21 -52 38
-66 29 -24 -7 32 -6 32 19 21 14 -7 29 -9 33 -6 8 9 -27 87 -40 87 -5 0 -6 -7
-3 -15z"/>
<path d="M4680 1441 c-26 -50 3 -102 43 -79 26 14 39 55 27 79 -14 25 -56 25
-70 0z m57 -16 c3 -9 -3 -25 -13 -36 -15 -17 -20 -18 -32 -5 -11 11 -11 18 -3
35 14 25 39 28 48 6z"/>
<path d="M6176 1439 l-26 -20 20 -40 c23 -44 27 -45 58 -23 30 21 28 39 -2 19
-19 -13 -25 -13 -29 -2 -3 7 4 19 15 26 26 16 16 26 -11 11 -29 -15 -28 6 2
31 30 25 6 24 -27 -2z"/>
<path d="M4765 1370 c-14 -27 -21 -50 -16 -50 5 0 12 7 15 16 4 10 13 13 26 9
11 -4 20 -2 20 4 0 6 -4 11 -10 11 -5 0 -10 7 -10 15 0 18 12 19 27 4 7 -7 13
-7 17 -1 3 5 -5 17 -19 26 -24 16 -25 16 -50 -34z"/>
<path d="M6085 1388 c-11 -6 -21 -12 -22 -13 -6 -4 29 -95 36 -95 23 0 51 34
51 64 0 50 -24 67 -65 44z m40 -43 c0 -16 -5 -30 -11 -32 -13 -4 -28 43 -18
58 11 19 29 3 29 -26z"/>
<path d="M4840 1330 c-23 -46 -27 -75 -5 -46 8 10 21 16 29 13 9 -4 18 -2 21
4 4 5 -1 12 -9 15 -26 10 -18 27 9 20 29 -7 32 1 8 20 -26 20 -31 18 -53 -26z"/>
<path d="M6030 1343 c0 -37 12 -83 23 -83 6 0 7 16 3 43 -8 46 -26 75 -26 40z"/>
<path d="M4921 1318 c-27 -67 -30 -78 -22 -82 11 -7 44 80 38 97 -3 7 -9 0
-16 -15z"/>
<path d="M5949 1321 c-20 -16 -21 -21 -10 -35 7 -9 22 -16 32 -16 11 0 19 -4
19 -10 0 -5 -12 -10 -27 -10 -25 0 -26 -1 -11 -16 24 -24 60 -2 56 34 -2 21
-9 28 -31 30 -15 2 -25 7 -22 12 3 4 15 6 26 3 15 -4 20 -2 17 7 -7 22 -23 22
-49 1z"/>
<path d="M4960 1295 c-36 -43 -1 -120 37 -82 17 17 17 18 -7 15 -19 -2 -26 2
-28 17 -1 11 2 27 8 35 8 12 13 13 30 3 28 -18 32 -16 20 7 -13 24 -42 26 -60
5z"/>
<path d="M5867 1298 c-27 -10 -28 -12 -21 -56 9 -62 10 -63 44 -50 36 12 40
31 5 22 -18 -4 -25 -2 -25 9 0 8 9 17 20 20 29 8 25 25 -5 19 -33 -6 -32 4 1
21 33 17 19 28 -19 15z"/>
<path d="M5041 1243 c-6 -21 -11 -44 -11 -50 0 -14 47 -29 58 -19 3 4 -4 9
-16 13 -12 3 -22 12 -22 19 0 10 7 13 25 8 30 -7 34 12 5 21 -29 9 -25 28 5
21 27 -7 35 8 9 18 -32 12 -43 5 -53 -31z"/>
<path d="M5754 1262 c-12 -8 -6 -102 7 -102 5 0 9 9 9 20 0 24 8 25 32 3 22
-20 33 -12 20 14 -6 10 -8 31 -5 46 5 24 3 27 -23 27 -16 0 -34 -4 -40 -8z
m46 -21 c0 -5 -7 -11 -15 -15 -9 -3 -15 0 -15 9 0 8 7 15 15 15 8 0 15 -4 15
-9z"/>
<path d="M5155 1226 c-20 -30 -16 -65 8 -80 22 -14 49 2 62 38 19 55 -39 90
-70 42z m53 -22 c2 -11 -4 -27 -13 -34 -22 -18 -39 1 -31 35 8 32 39 31 44 -1z"/>
<path d="M5663 1244 c-14 -6 -17 -44 -7 -81 7 -27 24 -31 24 -5 0 9 9 23 21
30 41 26 7 75 -38 56z m37 -29 c0 -8 -7 -15 -15 -15 -8 0 -15 7 -15 15 0 8 7
15 15 15 8 0 15 -7 15 -15z"/>
<path d="M5251 1190 c-13 -62 -13 -60 -2 -60 5 0 13 9 16 20 3 11 15 20 26 20
26 0 24 16 -3 25 -22 8 -22 8 5 12 33 5 35 18 5 27 -36 9 -36 9 -47 -44z"/>
<path d="M5356 1221 c-3 -5 1 -12 9 -15 12 -4 14 -15 9 -46 -4 -24 -3 -40 3
-40 6 0 13 18 17 39 3 22 13 41 22 45 8 3 12 10 9 16 -8 12 -62 13 -69 1z"/>
<path d="M5494 1206 c-7 -31 -24 -34 -31 -6 -10 37 -23 20 -23 -30 0 -27 5
-50 10 -50 6 0 10 9 10 20 0 11 7 20 15 20 8 0 15 -9 15 -20 0 -41 18 -18 22
28 5 52 -7 80 -18 38z"/>
<path d="M5540 1175 c0 -57 10 -66 54 -49 24 9 19 26 -6 22 -11 -2 -23 3 -25
10 -3 7 4 12 16 12 12 0 21 5 21 10 0 6 -9 10 -20 10 -11 0 -20 5 -20 10 0 6
9 10 19 10 11 0 23 5 26 10 4 6 -8 10 -29 10 l-36 0 0 -55z"/>
<path d="M6150 1205 c-18 -21 -5 -45 25 -45 14 0 25 -4 25 -10 0 -5 -9 -10
-20 -10 -24 0 -27 -18 -4 -27 9 -3 25 3 37 16 17 17 19 25 10 39 -6 9 -20 16
-32 15 -12 -2 -21 2 -21 7 0 6 9 10 20 10 11 0 20 5 20 10 0 16 -46 12 -60 -5z"/>
<path d="M6066 1167 c-14 -10 -16 -21 -11 -48 10 -55 16 -61 53 -47 40 16 42
32 2 23 -34 -7 -44 13 -10 22 11 3 20 10 20 15 0 6 -9 8 -20 5 -11 -3 -23 -1
-26 4 -3 5 -1 9 3 9 5 0 18 7 29 15 19 14 19 14 -2 15 -11 0 -28 -6 -38 -13z"/>
<path d="M4836 1125 c-35 -35 -10 -104 32 -90 26 8 49 62 35 84 -14 22 -47 25
-67 6z m50 -19 c7 -19 -14 -58 -29 -53 -14 4 -21 32 -13 53 7 18 35 18 42 0z"/>
<path d="M6004 1115 c7 -28 -5 -33 -24 -10 -23 28 -33 17 -26 -27 8 -52 26
-75 26 -33 0 27 1 27 18 12 18 -16 42 -23 42 -11 0 23 -24 94 -32 94 -6 0 -7
-11 -4 -25z"/>
<path d="M4927 1063 c-17 -51 -13 -69 7 -40 7 9 21 17 30 17 9 0 16 5 16 10 0
6 -7 10 -15 10 -8 0 -15 5 -15 10 0 6 12 10 28 10 26 1 26 1 8 15 -32 24 -43
18 -59 -32z"/>
<path d="M5907 1103 c-9 -14 2 -91 14 -98 14 -10 16 10 5 60 -7 29 -14 45 -19
38z"/>
<path d="M5030 1071 c0 -5 5 -11 12 -13 8 -3 9 -15 1 -47 -8 -31 -8 -41 0 -38
6 2 15 18 19 35 5 18 15 32 23 32 24 0 17 20 -11 30 -32 12 -44 13 -44 1z"/>
<path d="M5812 1028 c2 -32 8 -53 17 -56 9 -3 11 2 6 18 -5 16 -2 23 14 27 21
5 37 36 26 53 -3 5 -20 10 -36 10 -30 0 -30 0 -27 -52z m48 22 c0 -5 -7 -10
-15 -10 -8 0 -15 5 -15 10 0 6 7 10 15 10 8 0 15 -4 15 -10z"/>
<path d="M5123 1040 c-16 -38 -24 -90 -13 -90 5 0 12 9 15 20 3 11 13 20 22
20 11 0 14 -6 9 -26 -5 -19 -3 -25 6 -22 14 5 31 74 24 98 -3 11 -6 9 -11 -7
-10 -32 -33 -29 -37 5 l-4 27 -11 -25z"/>
<path d="M5717 1054 c-9 -9 -9 -66 -1 -88 8 -21 24 -20 24 2 0 9 9 23 21 30
29 18 22 56 -11 60 -14 2 -29 0 -33 -4z m43 -23 c0 -12 -20 -25 -27 -18 -7 7
6 27 18 27 5 0 9 -4 9 -9z"/>
<path d="M5212 988 c-5 -29 -9 -54 -9 -54 1 -1 17 -5 35 -9 35 -7 46 9 12 20
-28 9 -25 25 5 25 14 0 25 5 25 10 0 6 -9 10 -20 10 -11 0 -20 5 -20 10 0 6
11 10 25 10 31 0 33 16 3 24 -41 10 -45 7 -56 -46z"/>
<path d="M5660 996 c0 -25 5 -48 11 -51 16 -10 18 -4 12 48 -7 59 -23 62 -23
3z"/>
<path d="M5325 975 c-8 -62 -1 -82 14 -41 7 16 18 26 30 26 28 0 39 40 15 57
-37 27 -52 17 -59 -42z m45 15 c0 -5 -4 -10 -10 -10 -5 0 -10 5 -10 10 0 6 5
10 10 10 6 0 10 -4 10 -10z"/>
<path d="M5427 1024 c-11 -11 -9 -116 3 -109 6 3 10 15 10 26 0 10 7 19 15 19
8 0 15 -9 15 -19 0 -43 18 -27 23 21 7 54 -3 90 -13 48 -7 -32 -32 -33 -40 -2
-3 13 -8 20 -13 16z"/>
<path d="M5520 975 c0 -30 5 -55 10 -55 6 0 10 25 10 55 0 30 -4 55 -10 55 -5
0 -10 -25 -10 -55z"/>
<path d="M5570 974 c0 -54 1 -56 23 -50 12 3 28 6 35 6 6 0 12 5 12 10 0 6
-11 10 -25 10 -22 0 -25 4 -25 40 0 22 -4 40 -10 40 -5 0 -10 -25 -10 -56z"/>
<path d="M1395 3618 c-26 -31 -22 -47 9 -35 15 6 39 67 26 67 -4 0 -20 -14
-35 -32z"/>
<path d="M32 5573 c-22 -16 -30 -43 -12 -43 6 0 10 7 10 15 0 9 7 15 17 13 10
-2 19 4 21 15 4 21 -6 21 -36 0z"/>
<path d="M18 4963 c-15 -4 -18 -16 -18 -81 1 -52 4 -72 10 -61 12 20 39 149
31 148 -3 -1 -14 -3 -23 -6z"/>
<path d="M365 4600 c-8 -12 3 -50 14 -50 15 0 33 30 27 45 -6 17 -32 20 -41 5z"/>
</g>
</svg>
